<svg width="32" height="32" viewBox="0 0 32 32" fill="none" xmlns="http://www.w3.org/2000/svg">
  <circle cx="16" cy="16" r="16" fill="#8247E5"/>
  <path d="M21.092 12.693c-.369-.215-.821-.215-1.19 0l-3.377 1.95-2.284 1.32-3.377 1.95c-.369.215-.821.215-1.19 0l-2.682-1.55c-.369-.215-.595-.611-.595-1.04v-3.1c0-.429.226-.825.595-1.04l2.682-1.55c.369-.215.821-.215 1.19 0l2.682 1.55c.369.215.595.611.595 1.04v1.95l2.284-1.32v-1.95c0-.429-.226-.825-.595-1.04L11.405 6.693c-.369-.215-.821-.215-1.19 0L6.238 9.863c-.369.215-.595.611-.595 1.04v6.34c0 .429.226.825.595 1.04l3.977 2.3c.369.215.821.215 1.19 0l3.377-1.95 2.284-1.32 3.377-1.95c.369-.215.821-.215 1.19 0l2.682 1.55c.369.215.595.611.595 1.04v3.1c0 .429-.226.825-.595 1.04l-2.682 1.55c-.369.215-.821.215-1.19 0l-2.682-1.55c-.369-.215-.595-.611-.595-1.04v-1.95l-2.284 1.32v1.95c0 .429.226.825.595 1.04l3.977 2.3c.369.215.821.215 1.19 0l3.977-2.3c.369-.215.595-.611.595-1.04v-6.34c0-.429-.226-.825-.595-1.04l-3.977-2.3z" fill="#fff"/>
  <rect x="12" y="12" width="8" height="8" rx="1" fill="#8247E5"/>
  <text x="16" y="17" text-anchor="middle" fill="#fff" font-size="6" font-weight="bold">zk</text>
</svg>
